<svg width="136" height="57" viewBox="0 0 136 57" fill="none" xmlns="http://www.w3.org/2000/svg">
<path d="M10.9717 29.0137C10.9717 27.431 11.1764 25.9092 11.5859 24.4482C12.0065 22.9762 12.5986 21.6038 13.3623 20.3311V37.6797C12.5986 36.4069 12.0065 35.04 11.5859 33.5791C11.1764 32.1182 10.9717 30.5964 10.9717 29.0137ZM14.6074 39.6553V18.3555C14.9616 17.9017 15.3379 17.4645 15.7363 17.0439C16.1348 16.6234 16.5498 16.2249 16.9814 15.8486V42.1621C16.5498 41.7858 16.1348 41.3874 15.7363 40.9668C15.3379 40.5462 14.9616 40.109 14.6074 39.6553ZM18.2432 43.1914V14.8193C18.6195 14.5426 19.0068 14.2881 19.4053 14.0557C19.8037 13.8122 20.2077 13.5853 20.6172 13.375V44.6357C20.2077 44.4255 19.8037 44.1986 19.4053 43.9551C19.0068 43.7116 18.6195 43.457 18.2432 43.1914ZM21.8789 45.2168V12.7773C22.2663 12.6335 22.6536 12.4951 23.041 12.3623C23.4395 12.2184 23.8379 12.1022 24.2363 12.0137V46.0137C23.8379 45.903 23.4395 45.7812 23.041 45.6484C22.6536 45.5267 22.2663 45.3828 21.8789 45.2168ZM25.5146 46.2793V11.7314C25.902 11.665 26.2894 11.6152 26.6768 11.582C27.0752 11.5378 27.4792 11.5101 27.8887 11.499V46.5283C27.4792 46.5173 27.0752 46.4896 26.6768 46.4453C26.2894 46.401 25.902 46.3457 25.5146 46.2793ZM29.1338 46.5283V11.499C29.5433 11.5101 29.9417 11.5378 30.3291 11.582C30.7275 11.6152 31.1204 11.6706 31.5078 11.748V46.2793C31.1204 46.3457 30.7275 46.401 30.3291 46.4453C29.9417 46.4896 29.5433 46.5173 29.1338 46.5283ZM32.7695 46.0137V12.0137C33.179 12.1133 33.5775 12.2295 33.9648 12.3623C34.3633 12.4951 34.7562 12.639 35.1436 12.7939V45.2168C34.7562 45.3828 34.3633 45.5267 33.9648 45.6484C33.5775 45.7812 33.179 45.903 32.7695 46.0137ZM36.3887 44.6357V13.3916C36.8092 13.5908 37.2188 13.8122 37.6172 14.0557C38.0156 14.2992 38.403 14.5537 38.7793 14.8193V43.1914C38.403 43.457 38.0156 43.7116 37.6172 43.9551C37.2188 44.1986 36.8092 44.4255 36.3887 44.6357ZM40.041 42.1621V15.8652C40.4727 16.2415 40.8877 16.64 41.2861 17.0605C41.6846 17.4811 42.0609 17.9183 42.415 18.3721V39.6553C42.0609 40.109 41.6846 40.5462 41.2861 40.9668C40.8877 41.3874 40.4727 41.7858 40.041 42.1621ZM46.0508 29.0137C46.0508 30.5964 45.8405 32.1182 45.4199 33.5791C44.9993 35.04 44.4128 36.4069 43.6602 37.6797V20.3477C44.4128 21.6204 44.9993 22.9873 45.4199 24.4482C45.8405 25.9092 46.0508 27.431 46.0508 29.0137Z" fill="url(#paint0_linear_114_2152)"/>
<path d="M57.822 41V17.2H68.124C70.2547 17.2 72.0907 17.5513 73.632 18.254C75.1733 18.934 76.3633 19.92 77.202 21.212C78.0407 22.504 78.46 24.0453 78.46 25.836C78.46 27.604 78.0407 29.134 77.202 30.426C76.3633 31.6953 75.1733 32.67 73.632 33.35C72.0907 34.03 70.2547 34.37 68.124 34.37H60.882L63.33 31.956V41H57.822ZM72.952 41L67.002 32.364H72.884L78.902 41H72.952ZM63.33 32.568L60.882 29.984H67.818C69.518 29.984 70.7873 29.6213 71.626 28.896C72.4647 28.148 72.884 27.128 72.884 25.836C72.884 24.5213 72.4647 23.5013 71.626 22.776C70.7873 22.0507 69.518 21.688 67.818 21.688H60.882L63.33 19.07V32.568ZM89.964 41L79.696 17.2H85.646L94.622 38.28H91.12L100.232 17.2H105.706L95.404 41H89.964ZM106.329 41V37.43L121.051 19.682L121.731 21.688H106.601V17.2H126.627V20.77L111.939 38.518L111.259 36.512H127.137V41H106.329Z" fill="black"/>
<defs>
<linearGradient id="paint0_linear_114_2152" x1="29" y1="8" x2="29" y2="49" gradientUnits="userSpaceOnUse">
<stop stop-color="#EDB868"/>
<stop offset="1" stop-color="#E58653"/>
</linearGradient>
</defs>
</svg>
